<svg width="760" height="421" viewBox="0 0 760 421" fill="none" xmlns="http://www.w3.org/2000/svg">
<path fill-rule="evenodd" clip-rule="evenodd" d="M2.18604 0C0.741211 13.4688 0 27.1479 0 41C0 250.868 170.132 421 380 421C589.868 421 760 250.868 760 41C760 27.1479 759.259 13.4688 757.814 0H2.18604Z" fill="#BCE2F2"/>
<path d="M126.8 32.7V30H155.2C161.8 30 166.833 31.6667 170.3 35C173.767 38.2667 175.5 42.6333 175.5 48.1V51C175.5 56.4667 173.767 60.8667 170.3 64.2C166.833 67.5333 161.8 69.2 155.2 69.2H143.2V89.9C143.2 92.2333 143.3 93.6333 143.5 94.1C143.7 94.5 144.333 94.7333 145.4 94.8L152.9 95.4V98H126.8V95.4L132.3 94.8C133.367 94.6667 134 94.4 134.2 94C134.4 93.6 134.5 92.2333 134.5 89.9V38.1C134.5 35.7667 134.4 34.4 134.2 34C134 33.6 133.367 33.3333 132.3 33.2L126.8 32.7ZM155.2 33.2H143.2V66H155.2C162.6 66 166.3 61.4667 166.3 52.4V46.7C166.3 37.7 162.6 33.2 155.2 33.2ZM180.722 32.7V30H208.522C215.055 30 220.055 31.5667 223.522 34.7C227.055 37.7667 228.822 41.8667 228.822 47V50.1C228.822 54.1667 227.689 57.6333 225.422 60.5C223.222 63.3 220.055 65.2333 215.922 66.3L228.722 89.9C229.589 91.5 230.222 92.6333 230.622 93.3C231.022 93.9 231.389 94.3 231.722 94.5C232.122 94.6333 232.655 94.7333 233.322 94.8L237.822 95.4V98H222.722L206.922 67.2H197.122V89.9C197.122 92.2333 197.222 93.6 197.422 94C197.622 94.4 198.255 94.6667 199.322 94.8L204.822 95.4V98H180.722V95.4L186.222 94.8C187.289 94.6667 187.922 94.4 188.122 94C188.322 93.6 188.422 92.2333 188.422 89.9V38.1C188.422 35.7667 188.322 34.4 188.122 34C187.922 33.6 187.289 33.3333 186.222 33.2L180.722 32.7ZM208.522 33.2H197.122V64H208.522C211.989 64 214.689 62.9 216.622 60.7C218.622 58.4333 219.622 55.0333 219.622 50.5V46.6C219.622 42.0667 218.622 38.7 216.622 36.5C214.689 34.3 211.989 33.2 208.522 33.2ZM285.022 81.7H287.622V98H239.722V95.4L245.222 94.8C246.289 94.6667 246.922 94.4 247.122 94C247.322 93.6 247.422 92.2333 247.422 89.9V38.1C247.422 35.7667 247.322 34.4 247.122 34C246.922 33.6 246.289 33.3333 245.222 33.2L239.722 32.7V30H286.322V46.3H283.822L280.922 35.8C280.722 35 280.489 34.4333 280.222 34.1C280.022 33.7 279.589 33.4667 278.922 33.4C278.255 33.2667 277.122 33.2 275.522 33.2H256.122V62.1H269.522C271.122 62.1 272.255 62.0667 272.922 62C273.589 61.8667 274.022 61.6333 274.222 61.3C274.489 60.9 274.722 60.3 274.922 59.5L276.822 52H279.422V75.4H276.822L274.922 67.9C274.722 67.1 274.489 66.5333 274.222 66.2C274.022 65.8 273.589 65.5667 272.922 65.5C272.255 65.3667 271.122 65.3 269.522 65.3H256.122V94.8H276.722C278.322 94.8 279.455 94.7667 280.122 94.7C280.789 94.5667 281.222 94.3333 281.422 94C281.689 93.6 281.922 93 282.122 92.2L285.022 81.7ZM370.53 95.4V98H346.43V95.4L351.93 94.8C352.996 94.6667 353.63 94.4 353.83 94C354.03 93.5333 354.13 92.1667 354.13 89.9V35.7L333.33 90H326.53L305.63 35.7V89.9C305.63 92.1667 305.73 93.5333 305.93 94C306.13 94.4 306.763 94.6667 307.83 94.8L313.33 95.4V98H294.23V95.4L299.73 94.8C300.796 94.6667 301.43 94.4 301.63 94C301.83 93.5333 301.93 92.1667 301.93 89.9V38.1C301.93 35.8333 301.83 34.5 301.63 34.1C301.43 33.6333 300.796 33.3333 299.73 33.2L294.23 32.7V30H312.53L332.63 82.5L352.73 30H370.53V32.7L365.03 33.2C363.963 33.3333 363.33 33.6333 363.13 34.1C362.93 34.5 362.83 35.8333 362.83 38.1V89.9C362.83 92.1667 362.93 93.5333 363.13 94C363.33 94.4 363.963 94.6667 365.03 94.8L370.53 95.4ZM376.765 32.7V30H400.865V32.7L395.365 33.2C394.298 33.3333 393.665 33.6 393.465 34C393.265 34.4 393.165 35.7667 393.165 38.1V89.9C393.165 92.2333 393.265 93.6 393.465 94C393.665 94.4 394.298 94.6667 395.365 94.8L400.865 95.4V98H376.765V95.4L382.265 94.8C383.332 94.6667 383.965 94.4 384.165 94C384.365 93.6 384.465 92.2333 384.465 89.9V38.1C384.465 35.7667 384.365 34.4 384.165 34C383.965 33.6 383.332 33.3333 382.265 33.2L376.765 32.7ZM447.356 32.7V30H466.456V32.7L460.956 33.2C459.89 33.3333 459.256 33.6 459.056 34C458.856 34.4 458.756 35.7667 458.756 38.1V74.9C458.756 82.5 456.99 88.4333 453.456 92.7C449.99 96.9 444.656 99 437.456 99C429.59 99 423.556 96.7 419.356 92.1C415.223 87.5 413.156 81.1667 413.156 73.1V38.1C413.156 35.7667 413.056 34.4 412.856 34C412.656 33.6 412.023 33.3333 410.956 33.2L405.456 32.7V30H429.556V32.7L424.056 33.2C422.99 33.3333 422.356 33.6 422.156 34C421.956 34.4 421.856 35.7667 421.856 38.1V74.6C421.856 81.7333 423.19 87.0333 425.856 90.5C428.59 93.9667 432.723 95.7 438.256 95.7C443.856 95.7 448.056 93.9333 450.856 90.4C453.656 86.8667 455.056 81.7333 455.056 75V38.1C455.056 35.7667 454.956 34.4 454.756 34C454.556 33.6 453.923 33.3333 452.856 33.2L447.356 32.7ZM547.432 95.4V98H523.332V95.4L528.832 94.8C529.899 94.6667 530.532 94.4 530.732 94C530.932 93.5333 531.032 92.1667 531.032 89.9V35.7L510.232 90H503.432L482.532 35.7V89.9C482.532 92.1667 482.632 93.5333 482.832 94C483.032 94.4 483.665 94.6667 484.732 94.8L490.232 95.4V98H471.132V95.4L476.632 94.8C477.699 94.6667 478.332 94.4 478.532 94C478.732 93.5333 478.832 92.1667 478.832 89.9V38.1C478.832 35.8333 478.732 34.5 478.532 34.1C478.332 33.6333 477.699 33.3333 476.632 33.2L471.132 32.7V30H489.432L509.532 82.5L529.632 30H547.432V32.7L541.932 33.2C540.865 33.3333 540.232 33.6333 540.032 34.1C539.832 34.5 539.732 35.8333 539.732 38.1V89.9C539.732 92.1667 539.832 93.5333 540.032 94C540.232 94.4 540.865 94.6667 541.932 94.8L547.432 95.4Z" fill="black"/>
<path d="M242.8 117.7V115H271.2C277.8 115 282.833 116.667 286.3 120C289.767 123.267 291.5 127.633 291.5 133.1V136C291.5 141.467 289.767 145.867 286.3 149.2C282.833 152.533 277.8 154.2 271.2 154.2H259.2V174.9C259.2 177.233 259.3 178.633 259.5 179.1C259.7 179.5 260.333 179.733 261.4 179.8L268.9 180.4V183H242.8V180.4L248.3 179.8C249.367 179.667 250 179.4 250.2 179C250.4 178.6 250.5 177.233 250.5 174.9V123.1C250.5 120.767 250.4 119.4 250.2 119C250 118.6 249.367 118.333 248.3 118.2L242.8 117.7ZM271.2 118.2H259.2V151H271.2C278.6 151 282.3 146.467 282.3 137.4V131.7C282.3 122.7 278.6 118.2 271.2 118.2ZM304.765 180.4V183H285.765V180.4L291.165 179.8C291.898 179.733 292.432 179.633 292.765 179.5C293.098 179.3 293.398 178.9 293.665 178.3C293.998 177.633 294.398 176.5 294.865 174.9L314.165 115H320.465L339.965 174.9C340.432 176.5 340.798 177.633 341.065 178.3C341.398 178.9 341.732 179.3 342.065 179.5C342.398 179.633 342.898 179.733 343.565 179.8L349.065 180.4V183H324.765V180.4L330.265 179.8C331.332 179.667 331.898 179.4 331.965 179C332.098 178.533 331.798 177.167 331.065 174.9L326.965 162.1H302.565L298.465 174.9C297.732 177.167 297.398 178.533 297.465 179C297.598 179.4 298.198 179.667 299.265 179.8L304.765 180.4ZM303.565 158.9H325.965L314.765 124.1L303.565 158.9ZM350.058 117.7V115H378.458C385.058 115 390.091 116.667 393.558 120C397.024 123.267 398.758 127.633 398.758 133.1V136C398.758 141.467 397.024 145.867 393.558 149.2C390.091 152.533 385.058 154.2 378.458 154.2H366.458V174.9C366.458 177.233 366.558 178.633 366.758 179.1C366.958 179.5 367.591 179.733 368.658 179.8L376.158 180.4V183H350.058V180.4L355.558 179.8C356.624 179.667 357.258 179.4 357.458 179C357.658 178.6 357.758 177.233 357.758 174.9V123.1C357.758 120.767 357.658 119.4 357.458 119C357.258 118.6 356.624 118.333 355.558 118.2L350.058 117.7ZM378.458 118.2H366.458V151H378.458C385.858 151 389.558 146.467 389.558 137.4V131.7C389.558 122.7 385.858 118.2 378.458 118.2ZM449.28 166.7H451.88V183H403.98V180.4L409.48 179.8C410.546 179.667 411.18 179.4 411.38 179C411.58 178.6 411.68 177.233 411.68 174.9V123.1C411.68 120.767 411.58 119.4 411.38 119C411.18 118.6 410.546 118.333 409.48 118.2L403.98 117.7V115H450.58V131.3H448.08L445.18 120.8C444.98 120 444.746 119.433 444.48 119.1C444.28 118.7 443.846 118.467 443.18 118.4C442.513 118.267 441.38 118.2 439.78 118.2H420.38V147.1H433.78C435.38 147.1 436.513 147.067 437.18 147C437.846 146.867 438.28 146.633 438.48 146.3C438.746 145.9 438.98 145.3 439.18 144.5L441.08 137H443.68V160.4H441.08L439.18 152.9C438.98 152.1 438.746 151.533 438.48 151.2C438.28 150.8 437.846 150.567 437.18 150.5C436.513 150.367 435.38 150.3 433.78 150.3H420.38V179.8H440.98C442.58 179.8 443.713 179.767 444.38 179.7C445.046 179.567 445.48 179.333 445.68 179C445.946 178.6 446.18 178 446.38 177.2L449.28 166.7ZM501.288 166.5H503.988V183H458.488V180.4L463.988 179.8C465.054 179.667 465.688 179.4 465.888 179C466.088 178.6 466.188 177.233 466.188 174.9V123.1C466.188 120.767 466.088 119.4 465.888 119C465.688 118.6 465.054 118.333 463.988 118.2L458.488 117.7V115H482.588V117.7L477.088 118.2C476.021 118.333 475.388 118.6 475.188 119C474.988 119.4 474.888 120.767 474.888 123.1V179.8H492.988C494.588 179.8 495.721 179.767 496.388 179.7C497.054 179.567 497.488 179.333 497.688 179C497.954 178.6 498.188 178 498.388 177.2L501.288 166.5Z" fill="black"/>
<path d="M214.37 234.07L246.34 213.6H268.42V350.68C268.42 355.893 268.65 359.037 269.11 360.11C269.57 361.03 271.027 361.643 273.48 361.95L286.13 363.56V370H218.51V363.56L235.76 361.95C238.213 361.643 239.67 361.03 240.13 360.11C240.59 359.037 240.82 355.893 240.82 350.68V226.94L218.74 240.97L214.37 234.07ZM401.874 327.91C401.874 336.343 399.957 343.933 396.124 350.68C392.444 357.273 386.771 362.563 379.104 366.55C371.591 370.383 362.084 372.3 350.584 372.3C338.624 372.3 328.657 370.537 320.684 367.01C312.864 363.483 307.037 358.807 303.204 352.98C299.371 347 297.454 340.637 297.454 333.89C297.454 325.303 300.291 317.713 305.964 311.12C311.791 304.373 319.994 298.7 330.574 294.1C321.374 289.5 314.091 284.057 308.724 277.77C303.357 271.33 300.674 262.897 300.674 252.47C300.674 244.957 302.591 238.133 306.424 232C310.257 225.713 315.701 220.73 322.754 217.05C329.961 213.217 338.624 211.3 348.744 211.3C364.077 211.3 376.037 214.827 384.624 221.88C393.364 228.78 397.734 237.443 397.734 247.87C397.734 254.923 395.127 261.133 389.914 266.5C384.701 271.867 376.881 276.697 366.454 280.99C377.341 285.897 385.927 291.877 392.214 298.93C398.654 305.83 401.874 315.49 401.874 327.91ZM347.824 272.94L358.864 277.77C364.231 274.09 367.834 269.873 369.674 265.12C371.514 260.213 372.434 254.54 372.434 248.1C372.434 228.933 364.384 219.35 348.284 219.35C340.617 219.35 334.637 221.573 330.344 226.02C326.204 230.313 324.134 236.293 324.134 243.96C324.134 251.013 326.204 256.84 330.344 261.44C334.484 265.887 340.311 269.72 347.824 272.94ZM322.754 333.2C322.754 343.013 325.054 350.68 329.654 356.2C334.407 361.567 341.384 364.25 350.584 364.25C359.631 364.25 366.531 361.873 371.284 357.12C376.037 352.367 378.414 345.39 378.414 336.19C378.414 328.677 376.574 322.467 372.894 317.56C369.214 312.5 362.851 308.053 353.804 304.22L338.394 297.78C333.181 301.153 329.271 305.983 326.664 312.27C324.057 318.403 322.754 325.38 322.754 333.2ZM539.807 337.11C537.661 345.697 534.211 352.597 529.457 357.81C524.704 363.023 519.107 366.78 512.667 369.08C506.381 371.227 499.634 372.3 492.427 372.3C473.874 372.3 459.077 367.163 448.037 356.89C437.151 346.617 430.404 332.663 427.797 315.03H408.937V306.98H426.877C426.724 305.753 426.647 304.45 426.647 303.07C426.647 301.69 426.647 300.31 426.647 298.93V282.83H408.937V274.78H426.877C428.411 255.46 434.161 240.05 444.127 228.55C454.247 217.05 468.814 211.3 487.827 211.3C499.481 211.3 509.217 213.6 517.037 218.2C524.857 222.647 530.607 228.627 534.287 236.14C538.121 243.5 539.731 251.55 539.117 260.29L512.207 266.96C513.741 251.627 512.131 239.897 507.377 231.77C502.777 223.49 495.877 219.35 486.677 219.35C476.864 219.35 469.274 223.49 463.907 231.77C458.694 240.05 456.087 253.773 456.087 272.94V274.78H502.547L501.167 282.83H456.087V306.98H497.027L495.647 315.03H456.087C456.547 332.51 459.767 345.083 465.747 352.75C471.727 360.417 480.621 364.25 492.427 364.25C497.487 364.25 502.164 363.33 506.457 361.49C510.904 359.65 514.584 356.507 517.497 352.06C520.564 347.46 522.481 341.02 523.247 332.74L539.807 337.11Z" fill="black"/>
<path d="M214.37 234.07L213.292 232.386L211.616 233.459L212.68 235.14L214.37 234.07ZM246.34 213.6V211.6H245.755L245.262 211.916L246.34 213.6ZM268.42 213.6H270.42V211.6H268.42V213.6ZM269.11 360.11L267.272 360.898L267.295 360.952L267.321 361.004L269.11 360.11ZM273.48 361.95L273.733 359.966L273.728 359.965L273.48 361.95ZM286.13 363.56H288.13V361.798L286.383 361.576L286.13 363.56ZM286.13 370V372H288.13V370H286.13ZM218.51 370H216.51V372H218.51V370ZM218.51 363.56L218.324 361.569L216.51 361.738V363.56H218.51ZM235.76 361.95L235.946 363.941L235.977 363.938L236.008 363.935L235.76 361.95ZM240.13 360.11L241.919 361.004L241.945 360.952L241.968 360.898L240.13 360.11ZM240.82 226.94H242.82V223.3L239.747 225.252L240.82 226.94ZM218.74 240.97L217.05 242.04L218.122 243.732L219.813 242.658L218.74 240.97ZM215.448 235.754L247.418 215.284L245.262 211.916L213.292 232.386L215.448 235.754ZM246.34 215.6H268.42V211.6H246.34V215.6ZM266.42 213.6V350.68H270.42V213.6H266.42ZM266.42 350.68C266.42 353.308 266.478 355.452 266.598 357.093C266.71 358.632 266.891 360.01 267.272 360.898L270.948 359.322C270.948 359.322 270.948 359.321 270.947 359.319C270.946 359.316 270.945 359.313 270.943 359.308C270.94 359.299 270.935 359.286 270.929 359.268C270.918 359.233 270.903 359.184 270.887 359.12C270.854 358.99 270.818 358.817 270.782 358.594C270.709 358.146 270.642 357.553 270.587 356.802C270.477 355.299 270.42 353.265 270.42 350.68H266.42ZM267.321 361.004C267.853 362.069 268.829 362.707 269.771 363.103C270.735 363.509 271.914 363.77 273.232 363.935L273.728 359.965C272.593 359.824 271.816 359.624 271.324 359.417C270.809 359.2 270.827 359.071 270.899 359.216L267.321 361.004ZM273.227 363.934L285.877 365.544L286.383 361.576L273.733 359.966L273.227 363.934ZM284.13 363.56V370H288.13V363.56H284.13ZM286.13 368H218.51V372H286.13V368ZM220.51 370V363.56H216.51V370H220.51ZM218.696 365.551L235.946 363.941L235.574 359.959L218.324 361.569L218.696 365.551ZM236.008 363.935C237.326 363.77 238.505 363.509 239.469 363.103C240.411 362.707 241.387 362.069 241.919 361.004L238.341 359.216C238.413 359.071 238.431 359.2 237.916 359.417C237.424 359.624 236.647 359.824 235.512 359.965L236.008 363.935ZM241.968 360.898C242.349 360.01 242.53 358.632 242.642 357.093C242.762 355.452 242.82 353.308 242.82 350.68H238.82C238.82 353.265 238.763 355.299 238.653 356.802C238.598 357.553 238.531 358.146 238.458 358.594C238.422 358.817 238.386 358.99 238.353 359.12C238.337 359.184 238.322 359.233 238.311 359.268C238.305 359.286 238.3 359.299 238.297 359.308C238.295 359.313 238.294 359.316 238.293 359.319C238.292 359.321 238.292 359.322 238.292 359.322L241.968 360.898ZM242.82 350.68V226.94H238.82V350.68H242.82ZM239.747 225.252L217.667 239.282L219.813 242.658L241.893 228.628L239.747 225.252ZM220.43 239.9L216.06 233L212.68 235.14L217.05 242.04L220.43 239.9ZM396.124 350.68L394.385 349.692L394.381 349.699L394.378 349.705L396.124 350.68ZM379.104 366.55L380.013 368.332L380.02 368.328L380.027 368.324L379.104 366.55ZM320.684 367.01L319.862 368.833L319.868 368.836L319.875 368.839L320.684 367.01ZM303.204 352.98L301.52 354.059L301.527 354.069L301.533 354.079L303.204 352.98ZM305.964 311.12L304.45 309.813L304.448 309.816L305.964 311.12ZM330.574 294.1L331.371 295.934L335.299 294.226L331.468 292.311L330.574 294.1ZM308.724 277.77L307.187 279.05L307.195 279.059L307.203 279.069L308.724 277.77ZM306.424 232L308.12 233.06L308.126 233.051L308.131 233.041L306.424 232ZM322.754 217.05L323.679 218.823L323.686 218.819L323.693 218.816L322.754 217.05ZM384.624 221.88L383.354 223.425L383.369 223.438L383.385 223.45L384.624 221.88ZM366.454 280.99L365.692 279.141L361.403 280.907L365.632 282.813L366.454 280.99ZM392.214 298.93L390.721 300.261L390.736 300.278L390.752 300.295L392.214 298.93ZM347.824 272.94L348.626 271.108L348.619 271.105L348.612 271.102L347.824 272.94ZM358.864 277.77L358.062 279.602L359.079 280.047L359.995 279.419L358.864 277.77ZM369.674 265.12L371.539 265.842L371.543 265.832L371.547 265.822L369.674 265.12ZM330.344 226.02L328.905 224.631L328.904 224.632L330.344 226.02ZM330.344 261.44L328.857 262.778L328.869 262.79L328.88 262.803L330.344 261.44ZM329.654 356.2L328.117 357.48L328.137 357.504L328.157 357.526L329.654 356.2ZM371.284 357.12L372.698 358.534L372.698 358.534L371.284 357.12ZM372.894 317.56L371.276 318.736L371.285 318.748L371.294 318.76L372.894 317.56ZM353.804 304.22L354.584 302.378L354.575 302.375L353.804 304.22ZM338.394 297.78L339.165 295.935L338.192 295.528L337.307 296.101L338.394 297.78ZM326.664 312.27L328.505 313.052L328.508 313.044L328.511 313.036L326.664 312.27ZM399.874 327.91C399.874 336.028 398.033 343.272 394.385 349.692L397.863 351.668C401.882 344.594 403.874 336.659 403.874 327.91H399.874ZM394.378 349.705C390.914 355.91 385.553 360.942 378.181 364.776L380.027 368.324C387.989 364.184 393.973 358.637 397.87 351.655L394.378 349.705ZM378.195 364.768C371.046 368.416 361.877 370.3 350.584 370.3V374.3C362.291 374.3 372.135 372.351 380.013 368.332L378.195 364.768ZM350.584 370.3C338.805 370.3 329.135 368.561 321.493 365.181L319.875 368.839C328.179 372.512 338.443 374.3 350.584 374.3V370.3ZM321.506 365.187C313.952 361.78 308.456 357.325 304.875 351.881L301.533 354.079C305.618 360.289 311.776 365.186 319.862 368.833L321.506 365.187ZM304.888 351.901C301.249 346.225 299.454 340.233 299.454 333.89H295.454C295.454 341.04 297.492 347.775 301.52 354.059L304.888 351.901ZM299.454 333.89C299.454 325.789 302.114 318.66 307.48 312.424L304.448 309.816C298.467 316.767 295.454 324.818 295.454 333.89H299.454ZM307.478 312.427C313.059 305.964 320.989 300.448 331.371 295.934L329.776 292.266C318.999 296.952 310.522 302.782 304.45 309.813L307.478 312.427ZM331.468 292.311C322.451 287.803 315.401 282.511 310.245 276.471L307.203 279.069C312.78 285.602 320.297 291.197 329.679 295.889L331.468 292.311ZM310.26 276.49C305.261 270.49 302.674 262.546 302.674 252.47H298.674C298.674 263.247 301.454 272.17 307.187 279.05L310.26 276.49ZM302.674 252.47C302.674 245.316 304.493 238.863 308.12 233.06L304.728 230.94C300.688 237.404 298.674 244.597 298.674 252.47H302.674ZM308.131 233.041C311.76 227.09 316.921 222.349 323.679 218.823L321.829 215.277C314.48 219.111 308.754 224.337 304.716 230.959L308.131 233.041ZM323.693 218.816C330.549 215.169 338.874 213.3 348.744 213.3V209.3C338.374 209.3 329.372 211.264 321.815 215.284L323.693 218.816ZM348.744 213.3C363.789 213.3 375.24 216.76 383.354 223.425L385.893 220.335C376.834 212.893 364.366 209.3 348.744 209.3V213.3ZM383.385 223.45C391.682 230 395.734 238.102 395.734 247.87H399.734C399.734 236.785 395.046 227.56 385.863 220.31L383.385 223.45ZM395.734 247.87C395.734 254.369 393.354 260.088 388.479 265.106L391.348 267.894C396.9 262.179 399.734 255.478 399.734 247.87H395.734ZM388.479 265.106C383.528 270.203 375.982 274.904 365.692 279.141L367.215 282.839C377.779 278.49 385.873 273.53 391.348 267.894L388.479 265.106ZM365.632 282.813C376.328 287.634 384.663 293.464 390.721 300.261L393.707 297.599C387.191 290.289 378.353 284.159 367.276 279.167L365.632 282.813ZM390.752 300.295C396.748 306.719 399.874 315.832 399.874 327.91H403.874C403.874 315.148 400.56 304.941 393.676 297.565L390.752 300.295ZM347.022 274.772L358.062 279.602L359.666 275.938L348.626 271.108L347.022 274.772ZM359.995 279.419C365.602 275.574 369.518 271.063 371.539 265.842L367.809 264.398C366.15 268.683 362.859 272.606 357.733 276.121L359.995 279.419ZM371.547 265.822C373.488 260.646 374.434 254.727 374.434 248.1H370.434C370.434 254.353 369.54 259.78 367.801 264.418L371.547 265.822ZM374.434 248.1C374.434 238.285 372.38 230.551 367.928 225.251C363.419 219.884 356.743 217.35 348.284 217.35V221.35C355.925 221.35 361.323 223.608 364.865 227.824C368.463 232.107 370.434 238.748 370.434 248.1H374.434ZM348.284 217.35C340.214 217.35 333.662 219.704 328.905 224.631L331.783 227.409C335.613 223.443 341.021 221.35 348.284 221.35V217.35ZM328.904 224.632C324.311 229.396 322.134 235.929 322.134 243.96H326.134C326.134 236.657 328.097 231.231 331.784 227.408L328.904 224.632ZM322.134 243.96C322.134 251.434 324.34 257.759 328.857 262.778L331.83 260.102C328.067 255.921 326.134 250.593 326.134 243.96H322.134ZM328.88 262.803C333.263 267.511 339.35 271.484 347.036 274.778L348.612 271.102C341.271 267.956 335.704 264.263 331.808 260.077L328.88 262.803ZM320.754 333.2C320.754 343.31 323.124 351.489 328.117 357.48L331.19 354.92C326.983 349.871 324.754 342.716 324.754 333.2H320.754ZM328.157 357.526C333.391 363.436 340.985 366.25 350.584 366.25V362.25C341.783 362.25 335.423 359.698 331.151 354.874L328.157 357.526ZM350.584 366.25C359.972 366.25 367.454 363.778 372.698 358.534L369.87 355.706C365.607 359.969 359.289 362.25 350.584 362.25V366.25ZM372.698 358.534C377.948 353.285 380.414 345.72 380.414 336.19H376.414C376.414 345.06 374.127 351.449 369.87 355.706L372.698 358.534ZM380.414 336.19C380.414 328.343 378.487 321.685 374.494 316.36L371.294 318.76C374.66 323.249 376.414 329.01 376.414 336.19H380.414ZM374.511 316.384C370.529 310.908 363.791 306.28 354.584 302.378L353.024 306.062C361.91 309.827 367.899 314.092 371.276 318.736L374.511 316.384ZM354.575 302.375L339.165 295.935L337.623 299.625L353.033 306.065L354.575 302.375ZM337.307 296.101C331.721 299.716 327.563 304.88 324.816 311.504L328.511 313.036C330.978 307.086 334.64 302.591 339.48 299.459L337.307 296.101ZM324.823 311.488C322.095 317.908 320.754 325.157 320.754 333.2H324.754C324.754 325.603 326.02 318.899 328.505 313.052L324.823 311.488ZM539.807 337.11L541.748 337.595L542.227 335.68L540.318 335.176L539.807 337.11ZM529.457 357.81L527.98 356.462L529.457 357.81ZM512.667 369.08L513.314 370.973L513.327 370.968L513.34 370.963L512.667 369.08ZM448.037 356.89L446.665 358.345L446.675 358.354L448.037 356.89ZM427.797 315.03L429.776 314.738L429.523 313.03H427.797V315.03ZM408.937 315.03H406.937V317.03H408.937V315.03ZM408.937 306.98V304.98H406.937V306.98H408.937ZM426.877 306.98V308.98H429.143L428.862 306.732L426.877 306.98ZM426.647 282.83H428.647V280.83H426.647V282.83ZM408.937 282.83H406.937V284.83H408.937V282.83ZM408.937 274.78V272.78H406.937V274.78H408.937ZM426.877 274.78V276.78H428.725L428.871 274.938L426.877 274.78ZM444.127 228.55L442.626 227.229L442.621 227.234L442.616 227.24L444.127 228.55ZM517.037 218.2L516.023 219.924L516.036 219.931L516.049 219.939L517.037 218.2ZM534.287 236.14L532.491 237.02L532.502 237.042L532.514 237.064L534.287 236.14ZM539.117 260.29L539.599 262.231L541.011 261.881L541.113 260.43L539.117 260.29ZM512.207 266.96L510.217 266.761L509.935 269.584L512.689 268.901L512.207 266.96ZM507.377 231.77L505.629 232.741L505.64 232.761L505.651 232.78L507.377 231.77ZM463.907 231.77L462.229 230.682L462.222 230.693L462.215 230.704L463.907 231.77ZM456.087 274.78H454.087V276.78H456.087V274.78ZM502.547 274.78L504.519 275.118L504.919 272.78H502.547V274.78ZM501.167 282.83V284.83H502.854L503.139 283.168L501.167 282.83ZM456.087 282.83V280.83H454.087V282.83H456.087ZM456.087 306.98H454.087V308.98H456.087V306.98ZM497.027 306.98L498.999 307.318L499.399 304.98H497.027V306.98ZM495.647 315.03V317.03H497.334L497.619 315.368L495.647 315.03ZM456.087 315.03V313.03H454.034L454.088 315.083L456.087 315.03ZM465.747 352.75L467.324 351.52L467.324 351.52L465.747 352.75ZM506.457 361.49L505.693 359.642L505.681 359.647L505.67 359.652L506.457 361.49ZM517.497 352.06L515.833 350.951L515.829 350.957L515.825 350.964L517.497 352.06ZM523.247 332.74L523.758 330.806L521.474 330.203L521.256 332.556L523.247 332.74ZM537.867 336.625C535.781 344.971 532.46 351.549 527.98 356.462L530.935 359.158C535.962 353.645 539.541 346.423 541.748 337.595L537.867 336.625ZM527.98 356.462C523.439 361.442 518.117 365.01 511.995 367.197L513.34 370.963C520.098 368.55 525.969 364.605 530.935 359.158L527.98 356.462ZM512.021 367.187C505.959 369.257 499.433 370.3 492.427 370.3V374.3C499.835 374.3 506.802 373.196 513.314 370.973L512.021 367.187ZM492.427 370.3C474.257 370.3 459.989 365.28 449.4 355.426L446.675 358.354C458.166 369.047 473.491 374.3 492.427 374.3V370.3ZM449.41 355.435C438.909 345.526 432.33 332.014 429.776 314.738L425.819 315.322C428.478 333.312 435.392 347.707 446.665 358.345L449.41 355.435ZM427.797 313.03H408.937V317.03H427.797V313.03ZM410.937 315.03V306.98H406.937V315.03H410.937ZM408.937 308.98H426.877V304.98H408.937V308.98ZM428.862 306.732C428.72 305.596 428.647 304.376 428.647 303.07H424.647C424.647 304.524 424.728 305.91 424.893 307.228L428.862 306.732ZM428.647 303.07C428.647 303.067 428.647 303.065 428.647 303.062C428.647 303.059 428.647 303.057 428.647 303.054C428.647 303.051 428.647 303.048 428.647 303.046C428.647 303.043 428.647 303.04 428.647 303.038C428.647 303.035 428.647 303.032 428.647 303.03C428.647 303.027 428.647 303.024 428.647 303.021C428.647 303.019 428.647 303.016 428.647 303.013C428.647 303.011 428.647 303.008 428.647 303.005C428.647 303.003 428.647 303 428.647 302.997C428.647 302.995 428.647 302.992 428.647 302.989C428.647 302.986 428.647 302.984 428.647 302.981C428.647 302.978 428.647 302.976 428.647 302.973C428.647 302.97 428.647 302.968 428.647 302.965C428.647 302.962 428.647 302.959 428.647 302.957C428.647 302.954 428.647 302.951 428.647 302.949C428.647 302.946 428.647 302.943 428.647 302.941C428.647 302.938 428.647 302.935 428.647 302.933C428.647 302.93 428.647 302.927 428.647 302.924C428.647 302.922 428.647 302.919 428.647 302.916C428.647 302.914 428.647 302.911 428.647 302.908C428.647 302.906 428.647 302.903 428.647 302.9C428.647 302.897 428.647 302.895 428.647 302.892C428.647 302.889 428.647 302.887 428.647 302.884C428.647 302.881 428.647 302.879 428.647 302.876C428.647 302.873 428.647 302.871 428.647 302.868C428.647 302.865 428.647 302.862 428.647 302.86C428.647 302.857 428.647 302.854 428.647 302.852C428.647 302.849 428.647 302.846 428.647 302.844C428.647 302.841 428.647 302.838 428.647 302.836C428.647 302.833 428.647 302.83 428.647 302.827C428.647 302.825 428.647 302.822 428.647 302.819C428.647 302.817 428.647 302.814 428.647 302.811C428.647 302.809 428.647 302.806 428.647 302.803C428.647 302.8 428.647 302.798 428.647 302.795C428.647 302.792 428.647 302.79 428.647 302.787C428.647 302.784 428.647 302.782 428.647 302.779C428.647 302.776 428.647 302.774 428.647 302.771C428.647 302.768 428.647 302.765 428.647 302.763C428.647 302.76 428.647 302.757 428.647 302.755C428.647 302.752 428.647 302.749 428.647 302.747C428.647 302.744 428.647 302.741 428.647 302.738C428.647 302.736 428.647 302.733 428.647 302.73C428.647 302.728 428.647 302.725 428.647 302.722C428.647 302.72 428.647 302.717 428.647 302.714C428.647 302.712 428.647 302.709 428.647 302.706C428.647 302.703 428.647 302.701 428.647 302.698C428.647 302.695 428.647 302.693 428.647 302.69C428.647 302.687 428.647 302.685 428.647 302.682C428.647 302.679 428.647 302.676 428.647 302.674C428.647 302.671 428.647 302.668 428.647 302.666C428.647 302.663 428.647 302.66 428.647 302.658C428.647 302.655 428.647 302.652 428.647 302.65C428.647 302.647 428.647 302.644 428.647 302.641C428.647 302.639 428.647 302.636 428.647 302.633C428.647 302.631 428.647 302.628 428.647 302.625C428.647 302.623 428.647 302.62 428.647 302.617C428.647 302.614 428.647 302.612 428.647 302.609C428.647 302.606 428.647 302.604 428.647 302.601C428.647 302.598 428.647 302.596 428.647 302.593C428.647 302.59 428.647 302.588 428.647 302.585C428.647 302.582 428.647 302.579 428.647 302.577C428.647 302.574 428.647 302.571 428.647 302.569C428.647 302.566 428.647 302.563 428.647 302.561C428.647 302.558 428.647 302.555 428.647 302.552C428.647 302.55 428.647 302.547 428.647 302.544C428.647 302.542 428.647 302.539 428.647 302.536C428.647 302.534 428.647 302.531 428.647 302.528C428.647 302.526 428.647 302.523 428.647 302.52C428.647 302.517 428.647 302.515 428.647 302.512C428.647 302.509 428.647 302.507 428.647 302.504C428.647 302.501 428.647 302.499 428.647 302.496C428.647 302.493 428.647 302.491 428.647 302.488C428.647 302.485 428.647 302.482 428.647 302.48C428.647 302.477 428.647 302.474 428.647 302.472C428.647 302.469 428.647 302.466 428.647 302.464C428.647 302.461 428.647 302.458 428.647 302.455C428.647 302.453 428.647 302.45 428.647 302.447C428.647 302.445 428.647 302.442 428.647 302.439C428.647 302.437 428.647 302.434 428.647 302.431C428.647 302.429 428.647 302.426 428.647 302.423C428.647 302.42 428.647 302.418 428.647 302.415C428.647 302.412 428.647 302.41 428.647 302.407C428.647 302.404 428.647 302.402 428.647 302.399C428.647 302.396 428.647 302.393 428.647 302.391C428.647 302.388 428.647 302.385 428.647 302.383C428.647 302.38 428.647 302.377 428.647 302.375C428.647 302.372 428.647 302.369 428.647 302.367C428.647 302.364 428.647 302.361 428.647 302.358C428.647 302.356 428.647 302.353 428.647 302.35C428.647 302.348 428.647 302.345 428.647 302.342C428.647 302.34 428.647 302.337 428.647 302.334C428.647 302.331 428.647 302.329 428.647 302.326C428.647 302.323 428.647 302.321 428.647 302.318C428.647 302.315 428.647 302.313 428.647 302.31C428.647 302.307 428.647 302.305 428.647 302.302C428.647 302.299 428.647 302.296 428.647 302.294C428.647 302.291 428.647 302.288 428.647 302.286C428.647 302.283 428.647 302.28 428.647 302.278C428.647 302.275 428.647 302.272 428.647 302.269C428.647 302.267 428.647 302.264 428.647 302.261C428.647 302.259 428.647 302.256 428.647 302.253C428.647 302.251 428.647 302.248 428.647 302.245C428.647 302.243 428.647 302.24 428.647 302.237C428.647 302.234 428.647 302.232 428.647 302.229C428.647 302.226 428.647 302.224 428.647 302.221C428.647 302.218 428.647 302.216 428.647 302.213C428.647 302.21 428.647 302.207 428.647 302.205C428.647 302.202 428.647 302.199 428.647 302.197C428.647 302.194 428.647 302.191 428.647 302.189C428.647 302.186 428.647 302.183 428.647 302.181C428.647 302.178 428.647 302.175 428.647 302.172C428.647 302.17 428.647 302.167 428.647 302.164C428.647 302.162 428.647 302.159 428.647 302.156C428.647 302.154 428.647 302.151 428.647 302.148C428.647 302.146 428.647 302.143 428.647 302.14C428.647 302.137 428.647 302.135 428.647 302.132C428.647 302.129 428.647 302.127 428.647 302.124C428.647 302.121 428.647 302.119 428.647 302.116C428.647 302.113 428.647 302.11 428.647 302.108C428.647 302.105 428.647 302.102 428.647 302.1C428.647 302.097 428.647 302.094 428.647 302.092C428.647 302.089 428.647 302.086 428.647 302.084C428.647 302.081 428.647 302.078 428.647 302.075C428.647 302.073 428.647 302.07 428.647 302.067C428.647 302.065 428.647 302.062 428.647 302.059C428.647 302.057 428.647 302.054 428.647 302.051C428.647 302.048 428.647 302.046 428.647 302.043C428.647 302.04 428.647 302.038 428.647 302.035C428.647 302.032 428.647 302.03 428.647 302.027C428.647 302.024 428.647 302.022 428.647 302.019C428.647 302.016 428.647 302.013 428.647 302.011C428.647 302.008 428.647 302.005 428.647 302.003C428.647 302 428.647 301.997 428.647 301.995C428.647 301.992 428.647 301.989 428.647 301.986C428.647 301.984 428.647 301.981 428.647 301.978C428.647 301.976 428.647 301.973 428.647 301.97C428.647 301.968 428.647 301.965 428.647 301.962C428.647 301.96 428.647 301.957 428.647 301.954C428.647 301.951 428.647 301.949 428.647 301.946C428.647 301.943 428.647 301.941 428.647 301.938C428.647 301.935 428.647 301.933 428.647 301.93C428.647 301.927 428.647 301.924 428.647 301.922C428.647 301.919 428.647 301.916 428.647 301.914C428.647 301.911 428.647 301.908 428.647 301.906C428.647 301.903 428.647 301.9 428.647 301.898C428.647 301.895 428.647 301.892 428.647 301.889C428.647 301.887 428.647 301.884 428.647 301.881C428.647 301.879 428.647 301.876 428.647 301.873C428.647 301.871 428.647 301.868 428.647 301.865C428.647 301.862 428.647 301.86 428.647 301.857C428.647 301.854 428.647 301.852 428.647 301.849C428.647 301.846 428.647 301.844 428.647 301.841C428.647 301.838 428.647 301.836 428.647 301.833C428.647 301.83 428.647 301.827 428.647 301.825C428.647 301.822 428.647 301.819 428.647 301.817C428.647 301.814 428.647 301.811 428.647 301.809C428.647 301.806 428.647 301.803 428.647 301.801C428.647 301.798 428.647 301.795 428.647 301.792C428.647 301.79 428.647 301.787 428.647 301.784C428.647 301.782 428.647 301.779 428.647 301.776C428.647 301.774 428.647 301.771 428.647 301.768C428.647 301.765 428.647 301.763 428.647 301.76C428.647 301.757 428.647 301.755 428.647 301.752C428.647 301.749 428.647 301.747 428.647 301.744C428.647 301.741 428.647 301.739 428.647 301.736C428.647 301.733 428.647 301.73 428.647 301.728C428.647 301.725 428.647 301.722 428.647 301.72C428.647 301.717 428.647 301.714 428.647 301.712C428.647 301.709 428.647 301.706 428.647 301.703C428.647 301.701 428.647 301.698 428.647 301.695C428.647 301.693 428.647 301.69 428.647 301.687C428.647 301.685 428.647 301.682 428.647 301.679C428.647 301.677 428.647 301.674 428.647 301.671C428.647 301.668 428.647 301.666 428.647 301.663C428.647 301.66 428.647 301.658 428.647 301.655C428.647 301.652 428.647 301.65 428.647 301.647C428.647 301.644 428.647 301.641 428.647 301.639C428.647 301.636 428.647 301.633 428.647 301.631C428.647 301.628 428.647 301.625 428.647 301.623C428.647 301.62 428.647 301.617 428.647 301.615C428.647 301.612 428.647 301.609 428.647 301.606C428.647 301.604 428.647 301.601 428.647 301.598C428.647 301.596 428.647 301.593 428.647 301.59C428.647 301.588 428.647 301.585 428.647 301.582C428.647 301.579 428.647 301.577 428.647 301.574C428.647 301.571 428.647 301.569 428.647 301.566C428.647 301.563 428.647 301.561 428.647 301.558C428.647 301.555 428.647 301.553 428.647 301.55C428.647 301.547 428.647 301.544 428.647 301.542C428.647 301.539 428.647 301.536 428.647 301.534C428.647 301.531 428.647 301.528 428.647 301.526C428.647 301.523 428.647 301.52 428.647 301.517C428.647 301.515 428.647 301.512 428.647 301.509C428.647 301.507 428.647 301.504 428.647 301.501C428.647 301.499 428.647 301.496 428.647 301.493C428.647 301.491 428.647 301.488 428.647 301.485C428.647 301.482 428.647 301.48 428.647 301.477C428.647 301.474 428.647 301.472 428.647 301.469C428.647 301.466 428.647 301.464 428.647 301.461C428.647 301.458 428.647 301.456 428.647 301.453C428.647 301.45 428.647 301.447 428.647 301.445C428.647 301.442 428.647 301.439 428.647 301.437C428.647 301.434 428.647 301.431 428.647 301.429C428.647 301.426 428.647 301.423 428.647 301.42C428.647 301.418 428.647 301.415 428.647 301.412C428.647 301.41 428.647 301.407 428.647 301.404C428.647 301.402 428.647 301.399 428.647 301.396C428.647 301.394 428.647 301.391 428.647 301.388C428.647 301.385 428.647 301.383 428.647 301.38C428.647 301.377 428.647 301.375 428.647 301.372C428.647 301.369 428.647 301.367 428.647 301.364C428.647 301.361 428.647 301.358 428.647 301.356C428.647 301.353 428.647 301.35 428.647 301.348C428.647 301.345 428.647 301.342 428.647 301.34C428.647 301.337 428.647 301.334 428.647 301.332C428.647 301.329 428.647 301.326 428.647 301.323C428.647 301.321 428.647 301.318 428.647 301.315C428.647 301.313 428.647 301.31 428.647 301.307C428.647 301.305 428.647 301.302 428.647 301.299C428.647 301.296 428.647 301.294 428.647 301.291C428.647 301.288 428.647 301.286 428.647 301.283C428.647 301.28 428.647 301.278 428.647 301.275C428.647 301.272 428.647 301.27 428.647 301.267C428.647 301.264 428.647 301.261 428.647 301.259C428.647 301.256 428.647 301.253 428.647 301.251C428.647 301.248 428.647 301.245 428.647 301.243C428.647 301.24 428.647 301.237 428.647 301.234C428.647 301.232 428.647 301.229 428.647 301.226C428.647 301.224 428.647 301.221 428.647 301.218C428.647 301.216 428.647 301.213 428.647 301.21C428.647 301.208 428.647 301.205 428.647 301.202C428.647 301.199 428.647 301.197 428.647 301.194C428.647 301.191 428.647 301.189 428.647 301.186C428.647 301.183 428.647 301.181 428.647 301.178C428.647 301.175 428.647 301.172 428.647 301.17C428.647 301.167 428.647 301.164 428.647 301.162C428.647 301.159 428.647 301.156 428.647 301.154C428.647 301.151 428.647 301.148 428.647 301.146C428.647 301.143 428.647 301.14 428.647 301.137C428.647 301.135 428.647 301.132 428.647 301.129C428.647 301.127 428.647 301.124 428.647 301.121C428.647 301.119 428.647 301.116 428.647 301.113C428.647 301.111 428.647 301.108 428.647 301.105C428.647 301.102 428.647 301.1 428.647 301.097C428.647 301.094 428.647 301.092 428.647 301.089C428.647 301.086 428.647 301.084 428.647 301.081C428.647 301.078 428.647 301.075 428.647 301.073C428.647 301.07 428.647 301.067 428.647 301.065C428.647 301.062 428.647 301.059 428.647 301.057C428.647 301.054 428.647 301.051 428.647 301.049C428.647 301.046 428.647 301.043 428.647 301.04C428.647 301.038 428.647 301.035 428.647 301.032C428.647 301.03 428.647 301.027 428.647 301.024C428.647 301.022 428.647 301.019 428.647 301.016C428.647 301.013 428.647 301.011 428.647 301.008C428.647 301.005 428.647 301.003 428.647 301C428.647 300.997 428.647 300.995 428.647 300.992C428.647 300.989 428.647 300.987 428.647 300.984C428.647 300.981 428.647 300.978 428.647 300.976C428.647 300.973 428.647 300.97 428.647 300.968C428.647 300.965 428.647 300.962 428.647 300.96C428.647 300.957 428.647 300.954 428.647 300.951C428.647 300.949 428.647 300.946 428.647 300.943C428.647 300.941 428.647 300.938 428.647 300.935C428.647 300.933 428.647 300.93 428.647 300.927C428.647 300.925 428.647 300.922 428.647 300.919C428.647 300.916 428.647 300.914 428.647 300.911C428.647 300.908 428.647 300.906 428.647 300.903C428.647 300.9 428.647 300.898 428.647 300.895C428.647 300.892 428.647 300.889 428.647 300.887C428.647 300.884 428.647 300.881 428.647 300.879C428.647 300.876 428.647 300.873 428.647 300.871C428.647 300.868 428.647 300.865 428.647 300.863C428.647 300.86 428.647 300.857 428.647 300.854C428.647 300.852 428.647 300.849 428.647 300.846C428.647 300.844 428.647 300.841 428.647 300.838C428.647 300.836 428.647 300.833 428.647 300.83C428.647 300.827 428.647 300.825 428.647 300.822C428.647 300.819 428.647 300.817 428.647 300.814C428.647 300.811 428.647 300.809 428.647 300.806C428.647 300.803 428.647 300.801 428.647 300.798C428.647 300.795 428.647 300.792 428.647 300.79C428.647 300.787 428.647 300.784 428.647 300.782C428.647 300.779 428.647 300.776 428.647 300.774C428.647 300.771 428.647 300.768 428.647 300.766C428.647 300.763 428.647 300.76 428.647 300.757C428.647 300.755 428.647 300.752 428.647 300.749C428.647 300.747 428.647 300.744 428.647 300.741C428.647 300.739 428.647 300.736 428.647 300.733C428.647 300.73 428.647 300.728 428.647 300.725C428.647 300.722 428.647 300.72 428.647 300.717C428.647 300.714 428.647 300.712 428.647 300.709C428.647 300.706 428.647 300.704 428.647 300.701C428.647 300.698 428.647 300.695 428.647 300.693C428.647 300.69 428.647 300.687 428.647 300.685C428.647 300.682 428.647 300.679 428.647 300.677C428.647 300.674 428.647 300.671 428.647 300.668C428.647 300.666 428.647 300.663 428.647 300.66C428.647 300.658 428.647 300.655 428.647 300.652C428.647 300.65 428.647 300.647 428.647 300.644C428.647 300.642 428.647 300.639 428.647 300.636C428.647 300.633 428.647 300.631 428.647 300.628C428.647 300.625 428.647 300.623 428.647 300.62C428.647 300.617 428.647 300.615 428.647 300.612C428.647 300.609 428.647 300.606 428.647 300.604C428.647 300.601 428.647 300.598 428.647 300.596C428.647 300.593 428.647 300.59 428.647 300.588C428.647 300.585 428.647 300.582 428.647 300.58C428.647 300.577 428.647 300.574 428.647 300.571C428.647 300.569 428.647 300.566 428.647 300.563C428.647 300.561 428.647 300.558 428.647 300.555C428.647 300.553 428.647 300.55 428.647 300.547C428.647 300.544 428.647 300.542 428.647 300.539C428.647 300.536 428.647 300.534 428.647 300.531C428.647 300.528 428.647 300.526 428.647 300.523C428.647 300.52 428.647 300.518 428.647 300.515C428.647 300.512 428.647 300.509 428.647 300.507C428.647 300.504 428.647 300.501 428.647 300.499C428.647 300.496 428.647 300.493 428.647 300.491C428.647 300.488 428.647 300.485 428.647 300.482C428.647 300.48 428.647 300.477 428.647 300.474C428.647 300.472 428.647 300.469 428.647 300.466C428.647 300.464 428.647 300.461 428.647 300.458C428.647 300.456 428.647 300.453 428.647 300.45C428.647 300.447 428.647 300.445 428.647 300.442C428.647 300.439 428.647 300.437 428.647 300.434C428.647 300.431 428.647 300.429 428.647 300.426C428.647 300.423 428.647 300.421 428.647 300.418C428.647 300.415 428.647 300.412 428.647 300.41C428.647 300.407 428.647 300.404 428.647 300.402C428.647 300.399 428.647 300.396 428.647 300.394C428.647 300.391 428.647 300.388 428.647 300.385C428.647 300.383 428.647 300.38 428.647 300.377C428.647 300.375 428.647 300.372 428.647 300.369C428.647 300.367 428.647 300.364 428.647 300.361C428.647 300.359 428.647 300.356 428.647 300.353C428.647 300.35 428.647 300.348 428.647 300.345C428.647 300.342 428.647 300.34 428.647 300.337C428.647 300.334 428.647 300.332 428.647 300.329C428.647 300.326 428.647 300.323 428.647 300.321C428.647 300.318 428.647 300.315 428.647 300.313C428.647 300.31 428.647 300.307 428.647 300.305C428.647 300.302 428.647 300.299 428.647 300.297C428.647 300.294 428.647 300.291 428.647 300.288C428.647 300.286 428.647 300.283 428.647 300.28C428.647 300.278 428.647 300.275 428.647 300.272C428.647 300.27 428.647 300.267 428.647 300.264C428.647 300.261 428.647 300.259 428.647 300.256C428.647 300.253 428.647 300.251 428.647 300.248C428.647 300.245 428.647 300.243 428.647 300.24C428.647 300.237 428.647 300.235 428.647 300.232C428.647 300.229 428.647 300.226 428.647 300.224C428.647 300.221 428.647 300.218 428.647 300.216C428.647 300.213 428.647 300.21 428.647 300.208C428.647 300.205 428.647 300.202 428.647 300.199C428.647 300.197 428.647 300.194 428.647 300.191C428.647 300.189 428.647 300.186 428.647 300.183C428.647 300.181 428.647 300.178 428.647 300.175C428.647 300.173 428.647 300.17 428.647 300.167C428.647 300.164 428.647 300.162 428.647 300.159C428.647 300.156 428.647 300.154 428.647 300.151C428.647 300.148 428.647 300.146 428.647 300.143C428.647 300.14 428.647 300.137 428.647 300.135C428.647 300.132 428.647 300.129 428.647 300.127C428.647 300.124 428.647 300.121 428.647 300.119C428.647 300.116 428.647 300.113 428.647 300.111C428.647 300.108 428.647 300.105 428.647 300.102C428.647 300.1 428.647 300.097 428.647 300.094C428.647 300.092 428.647 300.089 428.647 300.086C428.647 300.084 428.647 300.081 428.647 300.078C428.647 300.076 428.647 300.073 428.647 300.07C428.647 300.067 428.647 300.065 428.647 300.062C428.647 300.059 428.647 300.057 428.647 300.054C428.647 300.051 428.647 300.049 428.647 300.046C428.647 300.043 428.647 300.04 428.647 300.038C428.647 300.035 428.647 300.032 428.647 300.03C428.647 300.027 428.647 300.024 428.647 300.022C428.647 300.019 428.647 300.016 428.647 300.014C428.647 300.011 428.647 300.008 428.647 300.005C428.647 300.003 428.647 300 428.647 299.997C428.647 299.995 428.647 299.992 428.647 299.989C428.647 299.987 428.647 299.984 428.647 299.981C428.647 299.978 428.647 299.976 428.647 299.973C428.647 299.97 428.647 299.968 428.647 299.965C428.647 299.962 428.647 299.96 428.647 299.957C428.647 299.954 428.647 299.952 428.647 299.949C428.647 299.946 428.647 299.943 428.647 299.941C428.647 299.938 428.647 299.935 428.647 299.933C428.647 299.93 428.647 299.927 428.647 299.925C428.647 299.922 428.647 299.919 428.647 299.916C428.647 299.914 428.647 299.911 428.647 299.908C428.647 299.906 428.647 299.903 428.647 299.9C428.647 299.898 428.647 299.895 428.647 299.892C428.647 299.89 428.647 299.887 428.647 299.884C428.647 299.881 428.647 299.879 428.647 299.876C428.647 299.873 428.647 299.871 428.647 299.868C428.647 299.865 428.647 299.863 428.647 299.86C428.647 299.857 428.647 299.854 428.647 299.852C428.647 299.849 428.647 299.846 428.647 299.844C428.647 299.841 428.647 299.838 428.647 299.836C428.647 299.833 428.647 299.83 428.647 299.828C428.647 299.825 428.647 299.822 428.647 299.819C428.647 299.817 428.647 299.814 428.647 299.811C428.647 299.809 428.647 299.806 428.647 299.803C428.647 299.801 428.647 299.798 428.647 299.795C428.647 299.792 428.647 299.79 428.647 299.787C428.647 299.784 428.647 299.782 428.647 299.779C428.647 299.776 428.647 299.774 428.647 299.771C428.647 299.768 428.647 299.766 428.647 299.763C428.647 299.76 428.647 299.757 428.647 299.755C428.647 299.752 428.647 299.749 428.647 299.747C428.647 299.744 428.647 299.741 428.647 299.739C428.647 299.736 428.647 299.733 428.647 299.731C428.647 299.728 428.647 299.725 428.647 299.722C428.647 299.72 428.647 299.717 428.647 299.714C428.647 299.712 428.647 299.709 428.647 299.706C428.647 299.704 428.647 299.701 428.647 299.698C428.647 299.695 428.647 299.693 428.647 299.69C428.647 299.687 428.647 299.685 428.647 299.682C428.647 299.679 428.647 299.677 428.647 299.674C428.647 299.671 428.647 299.669 428.647 299.666C428.647 299.663 428.647 299.66 428.647 299.658C428.647 299.655 428.647 299.652 428.647 299.65C428.647 299.647 428.647 299.644 428.647 299.642C428.647 299.639 428.647 299.636 428.647 299.633C428.647 299.631 428.647 299.628 428.647 299.625C428.647 299.623 428.647 299.62 428.647 299.617C428.647 299.615 428.647 299.612 428.647 299.609C428.647 299.607 428.647 299.604 428.647 299.601C428.647 299.598 428.647 299.596 428.647 299.593C428.647 299.59 428.647 299.588 428.647 299.585C428.647 299.582 428.647 299.58 428.647 299.577C428.647 299.574 428.647 299.571 428.647 299.569C428.647 299.566 428.647 299.563 428.647 299.561C428.647 299.558 428.647 299.555 428.647 299.553C428.647 299.55 428.647 299.547 428.647 299.545C428.647 299.542 428.647 299.539 428.647 299.536C428.647 299.534 428.647 299.531 428.647 299.528C428.647 299.526 428.647 299.523 428.647 299.52C428.647 299.518 428.647 299.515 428.647 299.512C428.647 299.509 428.647 299.507 428.647 299.504C428.647 299.501 428.647 299.499 428.647 299.496C428.647 299.493 428.647 299.491 428.647 299.488C428.647 299.485 428.647 299.483 428.647 299.48C428.647 299.477 428.647 299.474 428.647 299.472C428.647 299.469 428.647 299.466 428.647 299.464C428.647 299.461 428.647 299.458 428.647 299.456C428.647 299.453 428.647 299.45 428.647 299.447C428.647 299.445 428.647 299.442 428.647 299.439C428.647 299.437 428.647 299.434 428.647 299.431C428.647 299.429 428.647 299.426 428.647 299.423C428.647 299.421 428.647 299.418 428.647 299.415C428.647 299.412 428.647 299.41 428.647 299.407C428.647 299.404 428.647 299.402 428.647 299.399C428.647 299.396 428.647 299.394 428.647 299.391C428.647 299.388 428.647 299.386 428.647 299.383C428.647 299.38 428.647 299.377 428.647 299.375C428.647 299.372 428.647 299.369 428.647 299.367C428.647 299.364 428.647 299.361 428.647 299.359C428.647 299.356 428.647 299.353 428.647 299.35C428.647 299.348 428.647 299.345 428.647 299.342C428.647 299.34 428.647 299.337 428.647 299.334C428.647 299.332 428.647 299.329 428.647 299.326C428.647 299.324 428.647 299.321 428.647 299.318C428.647 299.315 428.647 299.313 428.647 299.31C428.647 299.307 428.647 299.305 428.647 299.302C428.647 299.299 428.647 299.297 428.647 299.294C428.647 299.291 428.647 299.288 428.647 299.286C428.647 299.283 428.647 299.28 428.647 299.278C428.647 299.275 428.647 299.272 428.647 299.27C428.647 299.267 428.647 299.264 428.647 299.262C428.647 299.259 428.647 299.256 428.647 299.253C428.647 299.251 428.647 299.248 428.647 299.245C428.647 299.243 428.647 299.24 428.647 299.237C428.647 299.235 428.647 299.232 428.647 299.229C428.647 299.226 428.647 299.224 428.647 299.221C428.647 299.218 428.647 299.216 428.647 299.213C428.647 299.21 428.647 299.208 428.647 299.205C428.647 299.202 428.647 299.2 428.647 299.197C428.647 299.194 428.647 299.191 428.647 299.189C428.647 299.186 428.647 299.183 428.647 299.181C428.647 299.178 428.647 299.175 428.647 299.173C428.647 299.17 428.647 299.167 428.647 299.164C428.647 299.162 428.647 299.159 428.647 299.156C428.647 299.154 428.647 299.151 428.647 299.148C428.647 299.146 428.647 299.143 428.647 299.14C428.647 299.138 428.647 299.135 428.647 299.132C428.647 299.129 428.647 299.127 428.647 299.124C428.647 299.121 428.647 299.119 428.647 299.116C428.647 299.113 428.647 299.111 428.647 299.108C428.647 299.105 428.647 299.102 428.647 299.1C428.647 299.097 428.647 299.094 428.647 299.092C428.647 299.089 428.647 299.086 428.647 299.084C428.647 299.081 428.647 299.078 428.647 299.076C428.647 299.073 428.647 299.07 428.647 299.067C428.647 299.065 428.647 299.062 428.647 299.059C428.647 299.057 428.647 299.054 428.647 299.051C428.647 299.049 428.647 299.046 428.647 299.043C428.647 299.041 428.647 299.038 428.647 299.035C428.647 299.032 428.647 299.03 428.647 299.027C428.647 299.024 428.647 299.022 428.647 299.019C428.647 299.016 428.647 299.014 428.647 299.011C428.647 299.008 428.647 299.005 428.647 299.003C428.647 299 428.647 298.997 428.647 298.995C428.647 298.992 428.647 298.989 428.647 298.987C428.647 298.984 428.647 298.981 428.647 298.979C428.647 298.976 428.647 298.973 428.647 298.97C428.647 298.968 428.647 298.965 428.647 298.962C428.647 298.96 428.647 298.957 428.647 298.954C428.647 298.952 428.647 298.949 428.647 298.946C428.647 298.943 428.647 298.941 428.647 298.938C428.647 298.935 428.647 298.933 428.647 298.93H424.647C424.647 298.933 424.647 298.935 424.647 298.938C424.647 298.941 424.647 298.943 424.647 298.946C424.647 298.949 424.647 298.952 424.647 298.954C424.647 298.957 424.647 298.96 424.647 298.962C424.647 298.965 424.647 298.968 424.647 298.97C424.647 298.973 424.647 298.976 424.647 298.979C424.647 298.981 424.647 298.984 424.647 298.987C424.647 298.989 424.647 298.992 424.647 298.995C424.647 298.997 424.647 299 424.647 299.003C424.647 299.005 424.647 299.008 424.647 299.011C424.647 299.014 424.647 299.016 424.647 299.019C424.647 299.022 424.647 299.024 424.647 299.027C424.647 299.03 424.647 299.032 424.647 299.035C424.647 299.038 424.647 299.041 424.647 299.043C424.647 299.046 424.647 299.049 424.647 299.051C424.647 299.054 424.647 299.057 424.647 299.059C424.647 299.062 424.647 299.065 424.647 299.067C424.647 299.07 424.647 299.073 424.647 299.076C424.647 299.078 424.647 299.081 424.647 299.084C424.647 299.086 424.647 299.089 424.647 299.092C424.647 299.094 424.647 299.097 424.647 299.1C424.647 299.102 424.647 299.105 424.647 299.108C424.647 299.111 424.647 299.113 424.647 299.116C424.647 299.119 424.647 299.121 424.647 299.124C424.647 299.127 424.647 299.129 424.647 299.132C424.647 299.135 424.647 299.138 424.647 299.14C424.647 299.143 424.647 299.146 424.647 299.148C424.647 299.151 424.647 299.154 424.647 299.156C424.647 299.159 424.647 299.162 424.647 299.164C424.647 299.167 424.647 299.17 424.647 299.173C424.647 299.175 424.647 299.178 424.647 299.181C424.647 299.183 424.647 299.186 424.647 299.189C424.647 299.191 424.647 299.194 424.647 299.197C424.647 299.2 424.647 299.202 424.647 299.205C424.647 299.208 424.647 299.21 424.647 299.213C424.647 299.216 424.647 299.218 424.647 299.221C424.647 299.224 424.647 299.226 424.647 299.229C424.647 299.232 424.647 299.235 424.647 299.237C424.647 299.24 424.647 299.243 424.647 299.245C424.647 299.248 424.647 299.251 424.647 299.253C424.647 299.256 424.647 299.259 424.647 299.262C424.647 299.264 424.647 299.267 424.647 299.27C424.647 299.272 424.647 299.275 424.647 299.278C424.647 299.28 424.647 299.283 424.647 299.286C424.647 299.288 424.647 299.291 424.647 299.294C424.647 299.297 424.647 299.299 424.647 299.302C424.647 299.305 424.647 299.307 424.647 299.31C424.647 299.313 424.647 299.315 424.647 299.318C424.647 299.321 424.647 299.324 424.647 299.326C424.647 299.329 424.647 299.332 424.647 299.334C424.647 299.337 424.647 299.34 424.647 299.342C424.647 299.345 424.647 299.348 424.647 299.35C424.647 299.353 424.647 299.356 424.647 299.359C424.647 299.361 424.647 299.364 424.647 299.367C424.647 299.369 424.647 299.372 424.647 299.375C424.647 299.377 424.647 299.38 424.647 299.383C424.647 299.386 424.647 299.388 424.647 299.391C424.647 299.394 424.647 299.396 424.647 299.399C424.647 299.402 424.647 299.404 424.647 299.407C424.647 299.41 424.647 299.412 424.647 299.415C424.647 299.418 424.647 299.421 424.647 299.423C424.647 299.426 424.647 299.429 424.647 299.431C424.647 299.434 424.647 299.437 424.647 299.439C424.647 299.442 424.647 299.445 424.647 299.447C424.647 299.45 424.647 299.453 424.647 299.456C424.647 299.458 424.647 299.461 424.647 299.464C424.647 299.466 424.647 299.469 424.647 299.472C424.647 299.474 424.647 299.477 424.647 299.48C424.647 299.483 424.647 299.485 424.647 299.488C424.647 299.491 424.647 299.493 424.647 299.496C424.647 299.499 424.647 299.501 424.647 299.504C424.647 299.507 424.647 299.509 424.647 299.512C424.647 299.515 424.647 299.518 424.647 299.52C424.647 299.523 424.647 299.526 424.647 299.528C424.647 299.531 424.647 299.534 424.647 299.536C424.647 299.539 424.647 299.542 424.647 299.545C424.647 299.547 424.647 299.55 424.647 299.553C424.647 299.555 424.647 299.558 424.647 299.561C424.647 299.563 424.647 299.566 424.647 299.569C424.647 299.571 424.647 299.574 424.647 299.577C424.647 299.58 424.647 299.582 424.647 299.585C424.647 299.588 424.647 299.59 424.647 299.593C424.647 299.596 424.647 299.598 424.647 299.601C424.647 299.604 424.647 299.607 424.647 299.609C424.647 299.612 424.647 299.615 424.647 299.617C424.647 299.62 424.647 299.623 424.647 299.625C424.647 299.628 424.647 299.631 424.647 299.633C424.647 299.636 424.647 299.639 424.647 299.642C424.647 299.644 424.647 299.647 424.647 299.65C424.647 299.652 424.647 299.655 424.647 299.658C424.647 299.66 424.647 299.663 424.647 299.666C424.647 299.669 424.647 299.671 424.647 299.674C424.647 299.677 424.647 299.679 424.647 299.682C424.647 299.685 424.647 299.687 424.647 299.69C424.647 299.693 424.647 299.695 424.647 299.698C424.647 299.701 424.647 299.704 424.647 299.706C424.647 299.709 424.647 299.712 424.647 299.714C424.647 299.717 424.647 299.72 424.647 299.722C424.647 299.725 424.647 299.728 424.647 299.731C424.647 299.733 424.647 299.736 424.647 299.739C424.647 299.741 424.647 299.744 424.647 299.747C424.647 299.749 424.647 299.752 424.647 299.755C424.647 299.757 424.647 299.76 424.647 299.763C424.647 299.766 424.647 299.768 424.647 299.771C424.647 299.774 424.647 299.776 424.647 299.779C424.647 299.782 424.647 299.784 424.647 299.787C424.647 299.79 424.647 299.792 424.647 299.795C424.647 299.798 424.647 299.801 424.647 299.803C424.647 299.806 424.647 299.809 424.647 299.811C424.647 299.814 424.647 299.817 424.647 299.819C424.647 299.822 424.647 299.825 424.647 299.828C424.647 299.83 424.647 299.833 424.647 299.836C424.647 299.838 424.647 299.841 424.647 299.844C424.647 299.846 424.647 299.849 424.647 299.852C424.647 299.854 424.647 299.857 424.647 299.86C424.647 299.863 424.647 299.865 424.647 299.868C424.647 299.871 424.647 299.873 424.647 299.876C424.647 299.879 424.647 299.881 424.647 299.884C424.647 299.887 424.647 299.89 424.647 299.892C424.647 299.895 424.647 299.898 424.647 299.9C424.647 299.903 424.647 299.906 424.647 299.908C424.647 299.911 424.647 299.914 424.647 299.916C424.647 299.919 424.647 299.922 424.647 299.925C424.647 299.927 424.647 299.93 424.647 299.933C424.647 299.935 424.647 299.938 424.647 299.941C424.647 299.943 424.647 299.946 424.647 299.949C424.647 299.952 424.647 299.954 424.647 299.957C424.647 299.96 424.647 299.962 424.647 299.965C424.647 299.968 424.647 299.97 424.647 299.973C424.647 299.976 424.647 299.978 424.647 299.981C424.647 299.984 424.647 299.987 424.647 299.989C424.647 299.992 424.647 299.995 424.647 299.997C424.647 300 424.647 300.003 424.647 300.005C424.647 300.008 424.647 300.011 424.647 300.014C424.647 300.016 424.647 300.019 424.647 300.022C424.647 300.024 424.647 300.027 424.647 300.03C424.647 300.032 424.647 300.035 424.647 300.038C424.647 300.04 424.647 300.043 424.647 300.046C424.647 300.049 424.647 300.051 424.647 300.054C424.647 300.057 424.647 300.059 424.647 300.062C424.647 300.065 424.647 300.067 424.647 300.07C424.647 300.073 424.647 300.076 424.647 300.078C424.647 300.081 424.647 300.084 424.647 300.086C424.647 300.089 424.647 300.092 424.647 300.094C424.647 300.097 424.647 300.1 424.647 300.102C424.647 300.105 424.647 300.108 424.647 300.111C424.647 300.113 424.647 300.116 424.647 300.119C424.647 300.121 424.647 300.124 424.647 300.127C424.647 300.129 424.647 300.132 424.647 300.135C424.647 300.137 424.647 300.14 424.647 300.143C424.647 300.146 424.647 300.148 424.647 300.151C424.647 300.154 424.647 300.156 424.647 300.159C424.647 300.162 424.647 300.164 424.647 300.167C424.647 300.17 424.647 300.173 424.647 300.175C424.647 300.178 424.647 300.181 424.647 300.183C424.647 300.186 424.647 300.189 424.647 300.191C424.647 300.194 424.647 300.197 424.647 300.199C424.647 300.202 424.647 300.205 424.647 300.208C424.647 300.21 424.647 300.213 424.647 300.216C424.647 300.218 424.647 300.221 424.647 300.224C424.647 300.226 424.647 300.229 424.647 300.232C424.647 300.235 424.647 300.237 424.647 300.24C424.647 300.243 424.647 300.245 424.647 300.248C424.647 300.251 424.647 300.253 424.647 300.256C424.647 300.259 424.647 300.261 424.647 300.264C424.647 300.267 424.647 300.27 424.647 300.272C424.647 300.275 424.647 300.278 424.647 300.28C424.647 300.283 424.647 300.286 424.647 300.288C424.647 300.291 424.647 300.294 424.647 300.297C424.647 300.299 424.647 300.302 424.647 300.305C424.647 300.307 424.647 300.31 424.647 300.313C424.647 300.315 424.647 300.318 424.647 300.321C424.647 300.323 424.647 300.326 424.647 300.329C424.647 300.332 424.647 300.334 424.647 300.337C424.647 300.34 424.647 300.342 424.647 300.345C424.647 300.348 424.647 300.35 424.647 300.353C424.647 300.356 424.647 300.359 424.647 300.361C424.647 300.364 424.647 300.367 424.647 300.369C424.647 300.372 424.647 300.375 424.647 300.377C424.647 300.38 424.647 300.383 424.647 300.385C424.647 300.388 424.647 300.391 424.647 300.394C424.647 300.396 424.647 300.399 424.647 300.402C424.647 300.404 424.647 300.407 424.647 300.41C424.647 300.412 424.647 300.415 424.647 300.418C424.647 300.421 424.647 300.423 424.647 300.426C424.647 300.429 424.647 300.431 424.647 300.434C424.647 300.437 424.647 300.439 424.647 300.442C424.647 300.445 424.647 300.447 424.647 300.45C424.647 300.453 424.647 300.456 424.647 300.458C424.647 300.461 424.647 300.464 424.647 300.466C424.647 300.469 424.647 300.472 424.647 300.474C424.647 300.477 424.647 300.48 424.647 300.482C424.647 300.485 424.647 300.488 424.647 300.491C424.647 300.493 424.647 300.496 424.647 300.499C424.647 300.501 424.647 300.504 424.647 300.507C424.647 300.509 424.647 300.512 424.647 300.515C424.647 300.518 424.647 300.52 424.647 300.523C424.647 300.526 424.647 300.528 424.647 300.531C424.647 300.534 424.647 300.536 424.647 300.539C424.647 300.542 424.647 300.544 424.647 300.547C424.647 300.55 424.647 300.553 424.647 300.555C424.647 300.558 424.647 300.561 424.647 300.563C424.647 300.566 424.647 300.569 424.647 300.571C424.647 300.574 424.647 300.577 424.647 300.58C424.647 300.582 424.647 300.585 424.647 300.588C424.647 300.59 424.647 300.593 424.647 300.596C424.647 300.598 424.647 300.601 424.647 300.604C424.647 300.606 424.647 300.609 424.647 300.612C424.647 300.615 424.647 300.617 424.647 300.62C424.647 300.623 424.647 300.625 424.647 300.628C424.647 300.631 424.647 300.633 424.647 300.636C424.647 300.639 424.647 300.642 424.647 300.644C424.647 300.647 424.647 300.65 424.647 300.652C424.647 300.655 424.647 300.658 424.647 300.66C424.647 300.663 424.647 300.666 424.647 300.668C424.647 300.671 424.647 300.674 424.647 300.677C424.647 300.679 424.647 300.682 424.647 300.685C424.647 300.687 424.647 300.69 424.647 300.693C424.647 300.695 424.647 300.698 424.647 300.701C424.647 300.704 424.647 300.706 424.647 300.709C424.647 300.712 424.647 300.714 424.647 300.717C424.647 300.72 424.647 300.722 424.647 300.725C424.647 300.728 424.647 300.73 424.647 300.733C424.647 300.736 424.647 300.739 424.647 300.741C424.647 300.744 424.647 300.747 424.647 300.749C424.647 300.752 424.647 300.755 424.647 300.757C424.647 300.76 424.647 300.763 424.647 300.766C424.647 300.768 424.647 300.771 424.647 300.774C424.647 300.776 424.647 300.779 424.647 300.782C424.647 300.784 424.647 300.787 424.647 300.79C424.647 300.792 424.647 300.795 424.647 300.798C424.647 300.801 424.647 300.803 424.647 300.806C424.647 300.809 424.647 300.811 424.647 300.814C424.647 300.817 424.647 300.819 424.647 300.822C424.647 300.825 424.647 300.827 424.647 300.83C424.647 300.833 424.647 300.836 424.647 300.838C424.647 300.841 424.647 300.844 424.647 300.846C424.647 300.849 424.647 300.852 424.647 300.854C424.647 300.857 424.647 300.86 424.647 300.863C424.647 300.865 424.647 300.868 424.647 300.871C424.647 300.873 424.647 300.876 424.647 300.879C424.647 300.881 424.647 300.884 424.647 300.887C424.647 300.889 424.647 300.892 424.647 300.895C424.647 300.898 424.647 300.9 424.647 300.903C424.647 300.906 424.647 300.908 424.647 300.911C424.647 300.914 424.647 300.916 424.647 300.919C424.647 300.922 424.647 300.925 424.647 300.927C424.647 300.93 424.647 300.933 424.647 300.935C424.647 300.938 424.647 300.941 424.647 300.943C424.647 300.946 424.647 300.949 424.647 300.951C424.647 300.954 424.647 300.957 424.647 300.96C424.647 300.962 424.647 300.965 424.647 300.968C424.647 300.97 424.647 300.973 424.647 300.976C424.647 300.978 424.647 300.981 424.647 300.984C424.647 300.987 424.647 300.989 424.647 300.992C424.647 300.995 424.647 300.997 424.647 301C424.647 301.003 424.647 301.005 424.647 301.008C424.647 301.011 424.647 301.013 424.647 301.016C424.647 301.019 424.647 301.022 424.647 301.024C424.647 301.027 424.647 301.03 424.647 301.032C424.647 301.035 424.647 301.038 424.647 301.04C424.647 301.043 424.647 301.046 424.647 301.049C424.647 301.051 424.647 301.054 424.647 301.057C424.647 301.059 424.647 301.062 424.647 301.065C424.647 301.067 424.647 301.07 424.647 301.073C424.647 301.075 424.647 301.078 424.647 301.081C424.647 301.084 424.647 301.086 424.647 301.089C424.647 301.092 424.647 301.094 424.647 301.097C424.647 301.1 424.647 301.102 424.647 301.105C424.647 301.108 424.647 301.111 424.647 301.113C424.647 301.116 424.647 301.119 424.647 301.121C424.647 301.124 424.647 301.127 424.647 301.129C424.647 301.132 424.647 301.135 424.647 301.137C424.647 301.14 424.647 301.143 424.647 301.146C424.647 301.148 424.647 301.151 424.647 301.154C424.647 301.156 424.647 301.159 424.647 301.162C424.647 301.164 424.647 301.167 424.647 301.17C424.647 301.172 424.647 301.175 424.647 301.178C424.647 301.181 424.647 301.183 424.647 301.186C424.647 301.189 424.647 301.191 424.647 301.194C424.647 301.197 424.647 301.199 424.647 301.202C424.647 301.205 424.647 301.208 424.647 301.21C424.647 301.213 424.647 301.216 424.647 301.218C424.647 301.221 424.647 301.224 424.647 301.226C424.647 301.229 424.647 301.232 424.647 301.234C424.647 301.237 424.647 301.24 424.647 301.243C424.647 301.245 424.647 301.248 424.647 301.251C424.647 301.253 424.647 301.256 424.647 301.259C424.647 301.261 424.647 301.264 424.647 301.267C424.647 301.27 424.647 301.272 424.647 301.275C424.647 301.278 424.647 301.28 424.647 301.283C424.647 301.286 424.647 301.288 424.647 301.291C424.647 301.294 424.647 301.296 424.647 301.299C424.647 301.302 424.647 301.305 424.647 301.307C424.647 301.31 424.647 301.313 424.647 301.315C424.647 301.318 424.647 301.321 424.647 301.323C424.647 301.326 424.647 301.329 424.647 301.332C424.647 301.334 424.647 301.337 424.647 301.34C424.647 301.342 424.647 301.345 424.647 301.348C424.647 301.35 424.647 301.353 424.647 301.356C424.647 301.358 424.647 301.361 424.647 301.364C424.647 301.367 424.647 301.369 424.647 301.372C424.647 301.375 424.647 301.377 424.647 301.38C424.647 301.383 424.647 301.385 424.647 301.388C424.647 301.391 424.647 301.394 424.647 301.396C424.647 301.399 424.647 301.402 424.647 301.404C424.647 301.407 424.647 301.41 424.647 301.412C424.647 301.415 424.647 301.418 424.647 301.42C424.647 301.423 424.647 301.426 424.647 301.429C424.647 301.431 424.647 301.434 424.647 301.437C424.647 301.439 424.647 301.442 424.647 301.445C424.647 301.447 424.647 301.45 424.647 301.453C424.647 301.456 424.647 301.458 424.647 301.461C424.647 301.464 424.647 301.466 424.647 301.469C424.647 301.472 424.647 301.474 424.647 301.477C424.647 301.48 424.647 301.482 424.647 301.485C424.647 301.488 424.647 301.491 424.647 301.493C424.647 301.496 424.647 301.499 424.647 301.501C424.647 301.504 424.647 301.507 424.647 301.509C424.647 301.512 424.647 301.515 424.647 301.517C424.647 301.52 424.647 301.523 424.647 301.526C424.647 301.528 424.647 301.531 424.647 301.534C424.647 301.536 424.647 301.539 424.647 301.542C424.647 301.544 424.647 301.547 424.647 301.55C424.647 301.553 424.647 301.555 424.647 301.558C424.647 301.561 424.647 301.563 424.647 301.566C424.647 301.569 424.647 301.571 424.647 301.574C424.647 301.577 424.647 301.579 424.647 301.582C424.647 301.585 424.647 301.588 424.647 301.59C424.647 301.593 424.647 301.596 424.647 301.598C424.647 301.601 424.647 301.604 424.647 301.606C424.647 301.609 424.647 301.612 424.647 301.615C424.647 301.617 424.647 301.62 424.647 301.623C424.647 301.625 424.647 301.628 424.647 301.631C424.647 301.633 424.647 301.636 424.647 301.639C424.647 301.641 424.647 301.644 424.647 301.647C424.647 301.65 424.647 301.652 424.647 301.655C424.647 301.658 424.647 301.66 424.647 301.663C424.647 301.666 424.647 301.668 424.647 301.671C424.647 301.674 424.647 301.677 424.647 301.679C424.647 301.682 424.647 301.685 424.647 301.687C424.647 301.69 424.647 301.693 424.647 301.695C424.647 301.698 424.647 301.701 424.647 301.703C424.647 301.706 424.647 301.709 424.647 301.712C424.647 301.714 424.647 301.717 424.647 301.72C424.647 301.722 424.647 301.725 424.647 301.728C424.647 301.73 424.647 301.733 424.647 301.736C424.647 301.739 424.647 301.741 424.647 301.744C424.647 301.747 424.647 301.749 424.647 301.752C424.647 301.755 424.647 301.757 424.647 301.76C424.647 301.763 424.647 301.765 424.647 301.768C424.647 301.771 424.647 301.774 424.647 301.776C424.647 301.779 424.647 301.782 424.647 301.784C424.647 301.787 424.647 301.79 424.647 301.792C424.647 301.795 424.647 301.798 424.647 301.801C424.647 301.803 424.647 301.806 424.647 301.809C424.647 301.811 424.647 301.814 424.647 301.817C424.647 301.819 424.647 301.822 424.647 301.825C424.647 301.827 424.647 301.83 424.647 301.833C424.647 301.836 424.647 301.838 424.647 301.841C424.647 301.844 424.647 301.846 424.647 301.849C424.647 301.852 424.647 301.854 424.647 301.857C424.647 301.86 424.647 301.862 424.647 301.865C424.647 301.868 424.647 301.871 424.647 301.873C424.647 301.876 424.647 301.879 424.647 301.881C424.647 301.884 424.647 301.887 424.647 301.889C424.647 301.892 424.647 301.895 424.647 301.898C424.647 301.9 424.647 301.903 424.647 301.906C424.647 301.908 424.647 301.911 424.647 301.914C424.647 301.916 424.647 301.919 424.647 301.922C424.647 301.924 424.647 301.927 424.647 301.93C424.647 301.933 424.647 301.935 424.647 301.938C424.647 301.941 424.647 301.943 424.647 301.946C424.647 301.949 424.647 301.951 424.647 301.954C424.647 301.957 424.647 301.96 424.647 301.962C424.647 301.965 424.647 301.968 424.647 301.97C424.647 301.973 424.647 301.976 424.647 301.978C424.647 301.981 424.647 301.984 424.647 301.986C424.647 301.989 424.647 301.992 424.647 301.995C424.647 301.997 424.647 302 424.647 302.003C424.647 302.005 424.647 302.008 424.647 302.011C424.647 302.013 424.647 302.016 424.647 302.019C424.647 302.022 424.647 302.024 424.647 302.027C424.647 302.03 424.647 302.032 424.647 302.035C424.647 302.038 424.647 302.04 424.647 302.043C424.647 302.046 424.647 302.048 424.647 302.051C424.647 302.054 424.647 302.057 424.647 302.059C424.647 302.062 424.647 302.065 424.647 302.067C424.647 302.07 424.647 302.073 424.647 302.075C424.647 302.078 424.647 302.081 424.647 302.084C424.647 302.086 424.647 302.089 424.647 302.092C424.647 302.094 424.647 302.097 424.647 302.1C424.647 302.102 424.647 302.105 424.647 302.108C424.647 302.11 424.647 302.113 424.647 302.116C424.647 302.119 424.647 302.121 424.647 302.124C424.647 302.127 424.647 302.129 424.647 302.132C424.647 302.135 424.647 302.137 424.647 302.14C424.647 302.143 424.647 302.146 424.647 302.148C424.647 302.151 424.647 302.154 424.647 302.156C424.647 302.159 424.647 302.162 424.647 302.164C424.647 302.167 424.647 302.17 424.647 302.172C424.647 302.175 424.647 302.178 424.647 302.181C424.647 302.183 424.647 302.186 424.647 302.189C424.647 302.191 424.647 302.194 424.647 302.197C424.647 302.199 424.647 302.202 424.647 302.205C424.647 302.207 424.647 302.21 424.647 302.213C424.647 302.216 424.647 302.218 424.647 302.221C424.647 302.224 424.647 302.226 424.647 302.229C424.647 302.232 424.647 302.234 424.647 302.237C424.647 302.24 424.647 302.243 424.647 302.245C424.647 302.248 424.647 302.251 424.647 302.253C424.647 302.256 424.647 302.259 424.647 302.261C424.647 302.264 424.647 302.267 424.647 302.269C424.647 302.272 424.647 302.275 424.647 302.278C424.647 302.28 424.647 302.283 424.647 302.286C424.647 302.288 424.647 302.291 424.647 302.294C424.647 302.296 424.647 302.299 424.647 302.302C424.647 302.305 424.647 302.307 424.647 302.31C424.647 302.313 424.647 302.315 424.647 302.318C424.647 302.321 424.647 302.323 424.647 302.326C424.647 302.329 424.647 302.331 424.647 302.334C424.647 302.337 424.647 302.34 424.647 302.342C424.647 302.345 424.647 302.348 424.647 302.35C424.647 302.353 424.647 302.356 424.647 302.358C424.647 302.361 424.647 302.364 424.647 302.367C424.647 302.369 424.647 302.372 424.647 302.375C424.647 302.377 424.647 302.38 424.647 302.383C424.647 302.385 424.647 302.388 424.647 302.391C424.647 302.393 424.647 302.396 424.647 302.399C424.647 302.402 424.647 302.404 424.647 302.407C424.647 302.41 424.647 302.412 424.647 302.415C424.647 302.418 424.647 302.42 424.647 302.423C424.647 302.426 424.647 302.429 424.647 302.431C424.647 302.434 424.647 302.437 424.647 302.439C424.647 302.442 424.647 302.445 424.647 302.447C424.647 302.45 424.647 302.453 424.647 302.455C424.647 302.458 424.647 302.461 424.647 302.464C424.647 302.466 424.647 302.469 424.647 302.472C424.647 302.474 424.647 302.477 424.647 302.48C424.647 302.482 424.647 302.485 424.647 302.488C424.647 302.491 424.647 302.493 424.647 302.496C424.647 302.499 424.647 302.501 424.647 302.504C424.647 302.507 424.647 302.509 424.647 302.512C424.647 302.515 424.647 302.517 424.647 302.52C424.647 302.523 424.647 302.526 424.647 302.528C424.647 302.531 424.647 302.534 424.647 302.536C424.647 302.539 424.647 302.542 424.647 302.544C424.647 302.547 424.647 302.55 424.647 302.552C424.647 302.555 424.647 302.558 424.647 302.561C424.647 302.563 424.647 302.566 424.647 302.569C424.647 302.571 424.647 302.574 424.647 302.577C424.647 302.579 424.647 302.582 424.647 302.585C424.647 302.588 424.647 302.59 424.647 302.593C424.647 302.596 424.647 302.598 424.647 302.601C424.647 302.604 424.647 302.606 424.647 302.609C424.647 302.612 424.647 302.614 424.647 302.617C424.647 302.62 424.647 302.623 424.647 302.625C424.647 302.628 424.647 302.631 424.647 302.633C424.647 302.636 424.647 302.639 424.647 302.641C424.647 302.644 424.647 302.647 424.647 302.65C424.647 302.652 424.647 302.655 424.647 302.658C424.647 302.66 424.647 302.663 424.647 302.666C424.647 302.668 424.647 302.671 424.647 302.674C424.647 302.676 424.647 302.679 424.647 302.682C424.647 302.685 424.647 302.687 424.647 302.69C424.647 302.693 424.647 302.695 424.647 302.698C424.647 302.701 424.647 302.703 424.647 302.706C424.647 302.709 424.647 302.712 424.647 302.714C424.647 302.717 424.647 302.72 424.647 302.722C424.647 302.725 424.647 302.728 424.647 302.73C424.647 302.733 424.647 302.736 424.647 302.738C424.647 302.741 424.647 302.744 424.647 302.747C424.647 302.749 424.647 302.752 424.647 302.755C424.647 302.757 424.647 302.76 424.647 302.763C424.647 302.765 424.647 302.768 424.647 302.771C424.647 302.774 424.647 302.776 424.647 302.779C424.647 302.782 424.647 302.784 424.647 302.787C424.647 302.79 424.647 302.792 424.647 302.795C424.647 302.798 424.647 302.8 424.647 302.803C424.647 302.806 424.647 302.809 424.647 302.811C424.647 302.814 424.647 302.817 424.647 302.819C424.647 302.822 424.647 302.825 424.647 302.827C424.647 302.83 424.647 302.833 424.647 302.836C424.647 302.838 424.647 302.841 424.647 302.844C424.647 302.846 424.647 302.849 424.647 302.852C424.647 302.854 424.647 302.857 424.647 302.86C424.647 302.862 424.647 302.865 424.647 302.868C424.647 302.871 424.647 302.873 424.647 302.876C424.647 302.879 424.647 302.881 424.647 302.884C424.647 302.887 424.647 302.889 424.647 302.892C424.647 302.895 424.647 302.897 424.647 302.9C424.647 302.903 424.647 302.906 424.647 302.908C424.647 302.911 424.647 302.914 424.647 302.916C424.647 302.919 424.647 302.922 424.647 302.924C424.647 302.927 424.647 302.93 424.647 302.933C424.647 302.935 424.647 302.938 424.647 302.941C424.647 302.943 424.647 302.946 424.647 302.949C424.647 302.951 424.647 302.954 424.647 302.957C424.647 302.959 424.647 302.962 424.647 302.965C424.647 302.968 424.647 302.97 424.647 302.973C424.647 302.976 424.647 302.978 424.647 302.981C424.647 302.984 424.647 302.986 424.647 302.989C424.647 302.992 424.647 302.995 424.647 302.997C424.647 303 424.647 303.003 424.647 303.005C424.647 303.008 424.647 303.011 424.647 303.013C424.647 303.016 424.647 303.019 424.647 303.021C424.647 303.024 424.647 303.027 424.647 303.03C424.647 303.032 424.647 303.035 424.647 303.038C424.647 303.04 424.647 303.043 424.647 303.046C424.647 303.048 424.647 303.051 424.647 303.054C424.647 303.057 424.647 303.059 424.647 303.062C424.647 303.065 424.647 303.067 424.647 303.07H428.647ZM428.647 298.93V282.83H424.647V298.93H428.647ZM426.647 280.83H408.937V284.83H426.647V280.83ZM410.937 282.83V274.78H406.937V282.83H410.937ZM408.937 276.78H426.877V272.78H408.937V276.78ZM428.871 274.938C430.38 255.927 436.02 240.959 445.639 229.86L442.616 227.24C432.302 239.141 426.441 254.993 424.884 274.622L428.871 274.938ZM445.629 229.871C455.28 218.904 469.239 213.3 487.827 213.3V209.3C468.389 209.3 453.215 215.196 442.626 227.229L445.629 229.871ZM487.827 213.3C499.224 213.3 508.586 215.549 516.023 219.924L518.051 216.476C509.848 211.651 499.738 209.3 487.827 209.3V213.3ZM516.049 219.939C523.547 224.202 529.002 229.895 532.491 237.02L536.084 235.26C532.213 227.358 526.168 221.091 518.026 216.461L516.049 219.939ZM532.514 237.064C536.167 244.078 537.711 251.757 537.122 260.15L541.113 260.43C541.75 251.343 540.075 242.922 536.061 235.216L532.514 237.064ZM538.636 258.349L511.726 265.019L512.689 268.901L539.599 262.231L538.636 258.349ZM514.197 267.159C515.748 251.65 514.168 239.419 509.104 230.76L505.651 232.78C510.093 240.375 511.733 251.603 510.217 266.761L514.197 267.159ZM509.126 230.799C506.686 226.407 503.582 223.02 499.781 220.74C495.978 218.458 491.587 217.35 486.677 217.35V221.35C490.968 221.35 494.627 222.312 497.723 224.17C500.823 226.03 503.469 228.853 505.629 232.741L509.126 230.799ZM486.677 217.35C476.182 217.35 467.962 221.837 462.229 230.682L465.586 232.858C470.586 225.143 477.546 221.35 486.677 221.35V217.35ZM462.215 230.704C456.685 239.487 454.087 253.696 454.087 272.94H458.087C458.087 253.85 460.703 240.613 465.6 232.836L462.215 230.704ZM454.087 272.94V274.78H458.087V272.94H454.087ZM456.087 276.78H502.547V272.78H456.087V276.78ZM500.576 274.442L499.196 282.492L503.139 283.168L504.519 275.118L500.576 274.442ZM501.167 280.83H456.087V284.83H501.167V280.83ZM454.087 282.83V306.98H458.087V282.83H454.087ZM456.087 308.98H497.027V304.98H456.087V308.98ZM495.056 306.642L493.676 314.692L497.619 315.368L498.999 307.318L495.056 306.642ZM495.647 313.03H456.087V317.03H495.647V313.03ZM454.088 315.083C454.551 332.69 457.789 345.799 464.17 353.98L467.324 351.52C461.746 344.368 458.543 332.33 458.087 314.977L454.088 315.083ZM464.17 353.98C470.611 362.238 480.151 366.25 492.427 366.25V362.25C481.09 362.25 472.843 358.596 467.324 351.52L464.17 353.98ZM492.427 366.25C497.735 366.25 502.683 365.284 507.245 363.328L505.67 359.652C501.645 361.376 497.239 362.25 492.427 362.25V366.25ZM507.222 363.338C512.079 361.328 516.061 357.902 519.17 353.156L515.825 350.964C513.107 355.111 509.729 357.972 505.693 359.642L507.222 363.338ZM519.162 353.169C522.482 348.188 524.456 341.382 525.239 332.924L521.256 332.556C520.506 340.658 518.646 346.732 515.833 350.951L519.162 353.169ZM522.737 334.674L539.297 339.044L540.318 335.176L523.758 330.806L522.737 334.674Z" fill="black"/>
<path d="M620.1 77.3H601.1V96.7H597.6V77.3H578.7V74H597.6V54.5H601.1V74H620.1V77.3Z" fill="black"/>
</svg>
